<svg id="Group_6" data-name="Group 6" xmlns="http://www.w3.org/2000/svg" xmlns:xlink="http://www.w3.org/1999/xlink" width="128.332" height="125.401" viewBox="0 0 128.332 125.401">
  <defs>
    <clipPath id="clip-path">
      <rect id="Rectangle_15" data-name="Rectangle 15" width="128.332" height="125.401" fill="none"/>
    </clipPath>
  </defs>
  <g id="Group_5" data-name="Group 5" clip-path="url(#clip-path)">
    <path id="Path_35" data-name="Path 35" d="M219.3,172.785s6.617-6.193,13.267-8.855c25.067-22.915,4.017-26.942,35.767-90.072l-58.061,92.093c1.052.658,2.189,1.381,3.1,1.987a65.988,65.988,0,0,1,5.929,4.848" transform="translate(-168.886 -59.32)" fill="#005371"/>
    <path id="Path_36" data-name="Path 36" d="M386.295,135.313c5.245-22.6-19.768-48.754-19.768-48.754,10.25,18.348-12.879,52.615-21.6,62.644,0,0-.205,14.588-14.572,25.483l7.873,6.788c.211,1.28,41.912-19.642,48.066-46.162" transform="translate(-265.33 -69.521)" fill="#005371"/>
    <path id="Path_37" data-name="Path 37" d="M128.331,64.048q0-.422-.006-.845c0-.282,0-.565-.01-.848s-.018-.566-.027-.85c-.012-.567-.051-1.136-.083-1.706a64.227,64.227,0,0,0-.8-6.875,63.887,63.887,0,0,0-3.975-13.652,64.973,64.973,0,0,0-3.2-6.553,62.979,62.979,0,0,0-3.977-6.221c-.721-1.007-1.487-1.985-2.266-2.955-.795-.958-1.6-1.91-2.453-2.826a64.236,64.236,0,0,0-11.429-9.833A63.882,63.882,0,0,0,86.568,3.947,63.37,63.37,0,0,0,71.743.422L71.271.366,70.8.321l-.948-.09C69.533.2,69.216.185,68.9.161S68.268.116,67.95.1L66.993.056c-.318-.013-.641-.031-.949-.033L65.11.006l-.233,0L64.76,0h-.131l-.474,0a65.955,65.955,0,0,0-7.548.46A64.867,64.867,0,0,0,49.219,1.8c-.608.138-1.207.308-1.809.464-.3.076-.6.168-.9.254l-.894.261-.886.282c-.295.1-.591.184-.883.288-.584.205-1.172.4-1.747.619a64.611,64.611,0,0,0-6.741,2.939,65.671,65.671,0,0,0-6.272,3.641l-.377.246-.371.254-.74.507c-.489.343-.971.7-1.453,1.044l-.711.538c-.236.18-.475.356-.7.543-.462.371-.931.731-1.379,1.114a65.629,65.629,0,0,0-5.144,4.756A64.29,64.29,0,0,0,.975,53.3C.643,55.2.394,57.072.242,58.912c-.024.23-.039.459-.055.688l-.047.685c-.014.228-.034.453-.044.683s-.02.458-.03.686-.019.455-.029.682l-.007.17,0,.164q0,.163-.006.326l-.012.65q0,.162-.006.323l0,.161,0,.185c.014.879.021,1.748.042,2.6Q.115,68.2.183,69.453.3,70.7.417,71.907c.1.8.213,1.593.317,2.371a65.731,65.731,0,0,0,1.909,8.585l.292.967c.1.318.185.637.3.943l.625,1.809c.1.3.215.582.324.866l.328.841.32.82c.107.269.227.529.338.789l.658,1.511c.224.485.455.949.671,1.4l.323.669c.054.109.1.219.159.326l.167.315.64,1.206.3.57c.1.185.209.362.309.539l.586,1.009.274.471c.045.077.088.153.134.227l.139.22.521.823.465.732.21.331.2.288.641.931.522.76.047-.033.507.737c.085.127.175.249.266.37l.271.362,1.064,1.421a66.086,66.086,0,0,0,8.268,8.779c.156.14.308.28.462.413l.463.386.887.738c.566.487,1.131.9,1.645,1.3l.745.573c.239.183.485.349.711.512l1.244.882c.093.065.184.133.27.189l.249.163.45.294.7.458a4.664,4.664,0,0,0,1,.431l6.949-4.54a50.9,50.9,0,0,1,7.176,4.833A24.866,24.866,0,0,1,50.5,125.4a24.872,24.872,0,0,1,5.03-4.906,50.891,50.891,0,0,1,7.175-4.833l6.949,4.54,18.21-13.774-15,8.136L63.848,107.1a41.14,41.14,0,0,0-7.588,4.363c-2.967,2.267-5.764,4.709-5.764,4.709s-2.8-2.442-5.764-4.709a41.14,41.14,0,0,0-7.588-4.363L28.8,114l-.516-.384c-.489-.369-1.028-.747-1.568-1.2l-.846-.681-.442-.356c-.147-.124-.292-.253-.441-.382-.965-.823-1.989-1.751-3.048-2.787l-2.1-2.157c-.917-.988-1.849-2.053-2.783-3.2l-1.027-1.326-.262-.338c-.088-.112-.176-.226-.257-.345l-.479-.672.056-.039-.531-.753-.651-.924-.2-.286-.2-.3-.433-.667c-.306-.474-.656-.991-1.009-1.6l-.565-.947-.022-.037c-.77-1.365-1.516-2.8-2.223-4.295L8.42,88.44,8.314,88.2l-.093-.229-.2-.5-.2-.5-.1-.251-.093-.245L7.248,85.5l-.093-.247L7.066,85l-.178-.508c-.245-.677-.46-1.371-.685-2.068-.11-.349-.209-.7-.314-1.058l-.157-.533-.144-.538c-.095-.36-.194-.721-.287-1.085l-.264-1.1c-.093-.367-.164-.74-.246-1.113s-.163-.746-.229-1.125L4.35,74.734l-.186-1.15c-.232-1.541-.421-3.111-.541-4.707s-.175-3.216-.172-4.855.084-3.3.224-4.963.345-3.347.635-5.028A62.445,62.445,0,0,1,6.89,43.973a63.135,63.135,0,0,1,4.346-9.727A61.971,61.971,0,0,1,24.911,17.405a61.222,61.222,0,0,1,8.893-6.4q2.356-1.395,4.816-2.58l1.234-.577c.414-.186.831-.364,1.246-.547l.3-.132.319-.13.637-.259c.212-.085.425-.176.636-.256l.63-.238c.42-.159.838-.32,1.266-.465l.638-.223c.212-.075.425-.149.64-.216l1.284-.411,1.291-.379q2.587-.728,5.2-1.232l.653-.122c.218-.041.435-.083.653-.116l1.307-.21,1.308-.178c.435-.058.872-.1,1.307-.15q2.612-.272,5.2-.328c1.725-.041,3.437.006,5.129.109s3.366.27,5.011.513,3.264.539,4.851.892c1.393.311,2.758.675,4.1,1.071q1.25.386,2.483.822a62.3,62.3,0,0,1,19.171,11.012,61.479,61.479,0,0,1,5.335,5.052c.841.886,1.64,1.807,2.428,2.734.772.94,1.533,1.887,2.248,2.864a61.547,61.547,0,0,1,3.961,6.044,63.685,63.685,0,0,1,3.2,6.385,62.7,62.7,0,0,1,4.053,13.357,63.126,63.126,0,0,1,.862,6.753c.038.561.082,1.119.1,1.678l.037.837c.014.279.013.557.019.835l.015.833,0,.1v.094l0,.209-.007.418q-.013.835-.026,1.665c0,.138,0,.277-.008.414l-.024.409-.048.816-.048.814-.024.406-.012.2-.021.2L127,71.419l-.082.8c-.034.267-.076.532-.113.8a62.8,62.8,0,0,1-20.649,38.543l-.849.754-.864.708c-.573.466-1.126.937-1.7,1.356l-.847.638-.417.315-.208.156-.212.147-1.663,1.151-.2.141-.207.132-.412.261-.812.514c-.268.169-.532.339-.8.5l-.8.46-.778.449-.382.221c-.127.073-.252.147-.381.212l-1.5.784a59.634,59.634,0,0,1-9.407,3.891l-.79.259c-.246.081-.482.139-.7.2l-1.088.306-.888.25.89-.24,1.092-.294c.216-.061.452-.116.7-.195l.793-.25A59.7,59.7,0,0,0,93.2,120.6l1.509-.769c.13-.064.256-.136.384-.208l.386-.217.786-.442.8-.452c.267-.16.533-.328.8-.494l.82-.506.417-.257.21-.13.205-.139,1.683-1.136.215-.145.21-.154.423-.311.858-.631c.585-.414,1.146-.881,1.726-1.343l.876-.7.862-.748a63.381,63.381,0,0,0,13.165-15.763,62.487,62.487,0,0,0,8.1-22.915c.041-.268.086-.537.124-.806s.061-.542.092-.814q.092-.815.185-1.636l.023-.205.015-.207.029-.414q.029-.415.058-.831t.058-.833l.029-.418c.008-.139.009-.277.013-.415q.022-.83.045-1.665l.011-.418.006-.209,0-.115Z" fill="#005371"/>
    <path id="Path_38" data-name="Path 38" d="M258.416,68.5a.565.565,0,0,0-.779.174l-58.061,91.371a.565.565,0,1,0,.953.605L258.59,69.279a.565.565,0,0,0-.174-.779" transform="translate(-160.221 -54.946)" fill="#005371"/>
  </g>
</svg>
