<svg xmlns="http://www.w3.org/2000/svg" xmlns:xlink="http://www.w3.org/1999/xlink" width="231.57" height="226.282" viewBox="0 0 231.57 226.282">
  <defs>
    <clipPath id="clip-path">
      <rect id="Rectangle_3" data-name="Rectangle 3" width="231.57" height="226.282" fill="none"/>
    </clipPath>
  </defs>
  <g id="Group_3" data-name="Group 3" clip-path="url(#clip-path)">
    <path id="Path_31" data-name="Path 31" d="M226.564,252.369s11.94-11.174,23.94-15.979c45.232-41.349,7.249-48.615,64.541-162.533L210.276,240.036c1.9,1.188,3.95,2.493,5.589,3.585a119.081,119.081,0,0,1,10.7,8.748" transform="translate(-135.589 -47.625)" fill="#fff"/>
    <path id="Path_32" data-name="Path 32" d="M431.3,174.534c9.464-40.784-35.671-87.975-35.671-87.975,18.5,33.109-23.24,94.943-38.974,113.039,0,0-.37,26.324-26.295,45.984l14.206,12.249c.38,2.31,75.629-35.443,86.734-83.3" transform="translate(-213.018 -55.814)" fill="#fff"/>
    <path id="Path_33" data-name="Path 33" d="M231.569,115.572q-.005-.761-.011-1.525c-.007-.509,0-1.019-.018-1.529s-.033-1.022-.049-1.533c-.022-1.024-.091-2.049-.15-3.078A115.9,115.9,0,0,0,229.9,95.5a115.283,115.283,0,0,0-7.172-24.635,117.239,117.239,0,0,0-5.765-11.824,113.65,113.65,0,0,0-7.176-11.226c-1.3-1.817-2.683-3.581-4.089-5.332-1.434-1.728-2.891-3.446-4.426-5.1a115.913,115.913,0,0,0-20.623-17.744A115.274,115.274,0,0,0,156.209,7.122a114.349,114.349,0,0,0-26.75-6.36l-.854-.1L127.75.58,126.04.418c-.57-.056-1.142-.083-1.712-.127s-1.14-.082-1.713-.114L120.887.1c-.575-.024-1.156-.055-1.712-.059L117.489.012,117.068,0l-.211,0h-.237l-.856.006a119.013,119.013,0,0,0-13.619.83A117.049,117.049,0,0,0,88.813,3.251c-1.1.248-2.178.556-3.265.838-.544.137-1.08.3-1.619.458l-1.613.47-1.6.509c-.532.172-1.067.332-1.593.52-1.053.37-2.114.715-3.152,1.117a116.587,116.587,0,0,0-12.163,5.3,118.5,118.5,0,0,0-11.318,6.571l-.68.444-.669.458-1.336.915c-.883.619-1.752,1.254-2.622,1.884L45.9,23.71c-.426.325-.857.643-1.272.98-.833.67-1.68,1.319-2.489,2.011a118.423,118.423,0,0,0-9.282,8.583,116.01,116.01,0,0,0-31.1,60.888C1.161,99.6.71,102.984.437,106.306c-.043.415-.071.829-.1,1.242s-.057.825-.085,1.236-.062.817-.078,1.232-.036.827-.054,1.238-.035.822-.053,1.23l-.013.307-.006.3q-.006.295-.011.589-.011.588-.021,1.172-.006.292-.011.583L0,115.722l0,.334c.026,1.587.037,3.154.076,4.7q.127,2.317.251,4.569.214,2.247.421,4.429c.179,1.45.384,2.875.571,4.279a118.609,118.609,0,0,0,3.445,15.491l.527,1.744c.178.574.334,1.149.536,1.7l1.128,3.264c.175.535.388,1.05.585,1.562l.591,1.518.578,1.48c.193.486.41.954.61,1.423l1.188,2.727c.4.875.82,1.713,1.212,2.532l.583,1.207c.1.2.188.4.287.587l.3.568,1.155,2.176.547,1.029c.182.335.376.654.558.972l1.057,1.82.494.85c.082.139.158.276.241.41l.251.4.94,1.485.838,1.32.38.6.358.52,1.156,1.68.943,1.371.085-.059.916,1.329c.153.229.315.45.481.667l.489.654,1.919,2.564a119.252,119.252,0,0,0,14.92,15.842c.282.252.556.5.834.746l.835.7,1.6,1.332c1.022.879,2.042,1.623,2.968,2.345l1.344,1.034c.431.331.874.629,1.283.924l2.244,1.592c.167.116.332.24.487.341l.45.294.811.531,1.263.827a8.416,8.416,0,0,0,1.812.779l12.539-8.192a91.845,91.845,0,0,1,12.948,8.721c6.94,5.549,9.077,8.853,9.077,8.853s2.137-3.3,9.077-8.853a91.831,91.831,0,0,1,12.948-8.721l12.539,8.192,32.86-24.856-27.059,14.682-16.272-13.464a74.237,74.237,0,0,0-13.693,7.873c-5.354,4.091-10.4,8.5-10.4,8.5s-5.046-4.406-10.4-8.5a74.237,74.237,0,0,0-13.693-7.873L51.976,205.714l-.932-.693c-.882-.666-1.856-1.348-2.829-2.16l-1.527-1.229-.8-.642c-.265-.223-.527-.457-.8-.689-1.741-1.485-3.589-3.159-5.5-5.028L35.8,191.38c-1.655-1.783-3.337-3.7-5.023-5.78l-1.852-2.392-.473-.61c-.159-.2-.317-.408-.465-.622l-.865-1.213.1-.071-.959-1.36-1.175-1.667-.364-.516-.354-.546-.781-1.2c-.552-.855-1.184-1.789-1.82-2.895L20.757,170.8l-.04-.067c-1.39-2.463-2.736-5.045-4.011-7.75l-1.513-3.391L15,159.159l-.168-.412-.366-.9-.367-.9-.184-.453-.168-.442-.671-1.774-.169-.446-.16-.457-.32-.917c-.443-1.221-.829-2.474-1.236-3.732-.2-.63-.376-1.27-.567-1.908l-.283-.961-.261-.971c-.171-.65-.351-1.3-.518-1.957l-.476-1.984c-.168-.662-.3-1.336-.443-2.008s-.293-1.347-.413-2.03l-.383-2.052-.335-2.075c-.419-2.781-.759-5.614-.976-8.494s-.316-5.8-.31-8.761.152-5.946.4-8.955.623-6.04,1.146-9.072a112.681,112.681,0,0,1,4.654-18.149A113.926,113.926,0,0,1,20.275,61.8,111.824,111.824,0,0,1,44.951,31.407,110.474,110.474,0,0,1,61,19.863q4.251-2.517,8.69-4.655l2.227-1.041c.747-.335,1.5-.657,2.248-.987l.544-.239.575-.234,1.149-.468c.383-.153.767-.317,1.147-.462l1.137-.429c.757-.287,1.511-.577,2.284-.838l1.151-.4c.383-.135.767-.269,1.154-.39l2.317-.742,2.329-.684q4.668-1.313,9.386-2.224l1.178-.221c.392-.073.784-.15,1.179-.209l2.358-.38,2.36-.321c.785-.105,1.573-.179,2.358-.27q4.713-.491,9.388-.592c3.112-.073,6.2.011,9.256.2s6.074.487,9.042.925,5.89.972,8.754,1.61c2.514.562,4.978,1.218,7.393,1.933q2.255.7,4.481,1.483A112.417,112.417,0,0,1,189.677,30.1a110.937,110.937,0,0,1,9.627,9.116c1.518,1.6,2.96,3.26,4.381,4.933,1.393,1.7,2.766,3.4,4.057,5.168a111.059,111.059,0,0,1,7.148,10.906,114.922,114.922,0,0,1,5.781,11.522,113.145,113.145,0,0,1,7.314,24.1,113.913,113.913,0,0,1,1.556,12.186c.069,1.012.149,2.02.182,3.028l.066,1.51c.025.5.023,1,.035,1.506s.018,1,.028,1.5l0,.188,0,.17-.006.378-.012.754q-.023,1.507-.047,3.005c-.005.249,0,.5-.015.747l-.044.738-.086,1.473-.086,1.468-.043.732-.021.366-.037.365-.3,2.914q-.074.726-.147,1.45c-.062.481-.137.959-.2,1.438a113.317,113.317,0,0,1-37.261,69.549l-1.532,1.361-1.559,1.277c-1.033.841-2.031,1.691-3.073,2.447l-1.528,1.151-.753.568-.375.281-.383.265-3,2.076-.367.254-.374.239-.744.471-1.464.927c-.484.3-.959.611-1.435.9l-1.437.829-1.4.811-.689.4c-.228.132-.454.266-.687.383l-2.7,1.415a107.61,107.61,0,0,1-16.974,7.021l-1.425.467c-.445.147-.869.251-1.258.365l-1.963.553-1.6.451,1.607-.433,1.97-.53c.39-.11.816-.209,1.262-.351l1.43-.45a107.727,107.727,0,0,0,17.08-6.838l2.724-1.387c.235-.115.462-.246.693-.376l.7-.391,1.418-.8,1.451-.816c.481-.289.961-.591,1.45-.891l1.48-.914.752-.465.378-.235.371-.25,3.036-2.05.388-.262.38-.278.763-.561,1.548-1.139c1.055-.748,2.067-1.59,3.115-2.423l1.581-1.266,1.555-1.35A114.368,114.368,0,0,0,215.7,173.325a112.755,112.755,0,0,0,14.62-41.349c.074-.484.156-.969.224-1.455s.111-.978.166-1.468q.166-1.471.334-2.951l.042-.37.026-.373.053-.747q.052-.748.1-1.5t.1-1.5l.053-.754c.014-.251.016-.5.024-.749q.04-1.5.081-3l.02-.754.01-.377,0-.207Z" fill="#fff"/>
    <path id="Path_34" data-name="Path 34" d="M305.822,68.57a1.02,1.02,0,0,0-1.406.314L199.647,233.76a1.019,1.019,0,1,0,1.72,1.092L306.136,69.977a1.019,1.019,0,0,0-.314-1.406" transform="translate(-128.632 -44.113)" fill="#fff"/>
  </g>
</svg>
